Coordinates
version=1
nRows=11
nColumns=36
inDegrees=yes

Units are S.I. units (second, meters, Newtons, ...)
If the header above contains a line with 'inDegrees', this indicates whether rotational values are in degrees (yes) or radians (no).

endheader
time	pelvis_tilt	pelvis_list	pelvis_rotation	pelvis_tx	pelvis_ty	pelvis_tz	hip_flexion_r	hip_adduction_r	hip_rotation_r	knee_angle_r	knee_angle_r_beta	ankle_angle_r	subtalar_angle_r	mtp_angle_r	hip_flexion_l	hip_adduction_l	hip_rotation_l	knee_angle_l	knee_angle_l_beta	ankle_angle_l	subtalar_angle_l	mtp_angle_l	lumbar_extension	lumbar_bending	lumbar_rotation	arm_flex_r	arm_add_r	arm_rot_r	elbow_flex_r	pro_sup_r	arm_flex_l	arm_add_l	arm_rot_l	elbow_flex_l	pro_sup_l
      3.73333330	     -9.88680464	      5.41986575	      1.05736093	      0.97309438	      0.78876706	      0.01139289	     43.21803833	     -8.13417327	     -0.74539534	     77.01108211	      1.34409694	     41.43993814	    -12.87703516	     -7.49999987	     46.90793383	      0.02037566	      6.08702209	     74.97663344	      1.30858912	     34.99651568	     -6.35350384	     -7.49999987	    -24.39243558	      0.46225626	     -0.22387904	     27.98461111	    -13.77437684	     38.81806163	     24.15861353	     79.41786153	     23.14174438	    -12.59221274	     38.43559623	     21.47592233	     61.93053700
      3.75000000	    -11.24116669	      5.57011888	      0.65523950	      0.97349523	      0.78437215	      0.01144729	     44.65689489	     -7.98895978	     -0.40077191	     76.43971817	      1.33412476	     40.91686189	    -12.27057463	     -7.49999987	     48.34041528	      0.09530152	      6.18013546	     74.77015560	      1.30498540	     34.23096891	     -6.84315590	     -7.49999987	    -23.54171250	      0.26723900	     -0.25848878	     29.71137369	    -13.14582325	     47.52234097	     20.55791617	     73.67285726	     24.20570415	    -12.22305902	     40.17626808	     20.24452431	     61.73609863
      3.76666670	    -12.05060573	      5.64037604	      0.57995745	      0.98054673	      0.78310399	      0.01328402	     44.53758850	     -7.95035362	     -0.44177085	     75.22242524	      1.31287899	     40.82305567	    -11.90430019	     -7.49999987	     48.30371128	     -0.09851389	      6.21355374	     73.67532676	      1.28587703	     34.15500629	     -6.59840743	     -7.49999987	    -22.98006927	      0.10420214	     -0.25061624	     29.13616704	    -12.87543332	     47.68903853	     20.35377687	     73.69666355	     24.54002855	    -12.05635325	     40.17163994	     20.35070444	     61.74110335
      3.78333330	    -13.10552382	      5.72482360	      0.72994715	      0.98807353	      0.78704806	      0.01456936	     44.21333320	     -8.07984431	     -0.81672675	     73.76178111	      1.28738594	     41.07711414	    -10.87229388	     -7.49999987	     48.09897389	     -0.51221942	      5.76121986	     72.08190245	      1.25806653	     34.27986240	     -5.47730356	     -7.49999987	    -21.23348219	     -0.21823488	      0.54331011	     27.29140980	    -12.65304938	     47.71088126	     18.46221282	     73.23413434	     24.69810785	    -11.21915440	     39.78137073	     19.90146817	     61.81871475
      3.80000000	    -13.63517169	      5.73729957	      0.89502726	      0.98970736	      0.79353908	      0.01345467	     43.34006867	     -8.23054470	     -1.24964695	     72.04803384	      1.25747541	     40.82031784	    -10.81930027	     -7.49999987	     47.19031895	     -0.90085358	      5.26854366	     70.15951952	      1.22451462	     33.92451795	     -5.09196681	     -7.49999987	    -20.02260222	     -0.26827580	      0.25056632	     25.89374281	    -12.34152875	     48.04798467	     18.19119888	     73.27552206	     24.18158744	    -11.06261711	     39.98799245	     19.75893049	     61.86367690
      3.81666670	    -13.05100977	      5.80079554	      1.32321068	      1.00268845	      0.80291674	      0.01282316	     40.46533739	     -8.65729862	     -1.97153602	     69.57960112	      1.21439313	     40.01721415	    -11.21107869	     -7.49999987	     44.57676716	     -1.16149273	      4.62574837	     67.61136109	      1.18004086	     33.54118745	     -3.83506614	     -7.49999987	    -19.31387071	     -0.27915442	     -0.21982745	     24.28250283	    -11.68382363	     50.01951673	     15.89038673	     73.30193474	     23.73252350	    -10.52607086	     41.80953873	     17.81191456	     62.17600207
      3.83333330	    -13.41902837	      5.81650924	      1.47564868	      1.00343696	      0.81197680	      0.01182560	     39.37777958	     -8.91279731	     -2.51560322	     67.45505055	      1.17731273	     39.48483822	    -11.03095299	     -7.49999987	     43.43718152	     -1.44999670	      3.86080133	     65.30547873	      1.13979562	     32.88772880	     -3.29383521	     -7.49999987	    -17.78527118	     -0.25724326	     -0.64809615	     22.42370063	    -11.52375079	     50.39384788	     15.67790809	     73.31433807	     22.69954628	    -10.38351796	     42.10581687	     17.66831537	     62.20906821
      3.85000000	    -12.65555922	      5.80773939	      1.77696099	      1.00531384	      0.82524994	      0.01416292	     36.82094527	     -9.00785075	     -3.16517039	     64.68510127	      1.12896799	     37.76677449	    -11.83230918	     -7.49999987	     41.05121192	     -1.54741046	      3.52735463	     62.40159559	      1.08911330	     31.30483580	     -2.94785449	     -7.49999987	    -17.55532788	     -0.27833696	     -1.48103247	     21.25156900	    -11.12567089	     52.00193606	     15.03841335	     73.11583709	     22.32856231	    -10.40280900	     43.79122769	     16.78638600	     62.33542756
      3.86666670	    -12.55085118	      5.80862908	      1.87795256	      1.00677335	      0.83550668	      0.01609315	     35.34298373	     -8.94122902	     -3.68806565	     62.06876236	      1.08330427	     36.31849172	    -11.94828573	     -7.49999987	     39.60423375	     -1.85778659	      2.96128492	     59.74049823	      1.04266839	     29.72335408	     -2.32483932	     -7.49999987	    -16.54292229	     -0.43757325	     -1.88091530	     20.41887502	    -10.88481996	     58.83061524	     13.93710586	     69.58516044	     22.40683474	    -10.52216006	     50.92040211	     15.34926698	     60.71213473
      3.88333330	    -12.68085127	      5.78164182	      1.87321348	      1.00639682	      0.84804043	      0.01762482	     34.22182364	     -8.78821892	     -4.24937154	     59.25573000	      1.03420759	     34.73943549	    -11.55556209	     -7.49999987	     38.39334098	     -2.15825023	      2.46713948	     56.89613008	      0.99302480	     27.96826713	     -1.54275809	     -7.49999987	    -15.12596657	     -0.69156087	     -2.21003720	     18.95901451	    -10.67285877	     58.95629775	     13.97390417	     69.47454507	     21.54400235	    -10.54582771	     50.98873889	     15.32964526	     60.61481661
      3.90000000	    -11.80781709	      5.70689589	      1.72914868	      1.00611707	      0.86232208	      0.01990142	     31.61104633	     -8.23881157	     -4.50120219	     55.32635923	      0.96562713	     32.03793324	    -12.89451861	     -7.49999987	     35.76012842	     -2.43840351	      2.19530144	     53.38651680	      0.93177049	     25.35815051	     -1.79735385	     -7.49999987	    -15.40751344	     -0.75570987	     -2.59857753	     18.41775284	    -10.48775010	     59.15385969	     14.16658453	     68.97848758	     21.20021278	    -10.80375859	     51.11322673	     15.54124340	     60.21852286
